<svg width="156" height="52" viewBox="0 0 156 52" fill="none" xmlns="http://www.w3.org/2000/svg">
<rect x="0.5" y="0.5" width="155" height="51" rx="5.5" fill="black"/>
<rect x="0.5" y="0.5" width="155" height="51" rx="5.5" stroke="#A6A6A6"/>
<path d="M32.1143 25.9919C32.1301 24.796 32.4554 23.6235 33.0601 22.5833C33.6648 21.5432 34.5291 20.6693 35.5727 20.0429C34.9097 19.1186 34.0351 18.3579 33.0184 17.8212C32.0016 17.2846 30.8707 16.9868 29.7154 16.9515C27.251 16.6989 24.862 18.3912 23.6061 18.3912C22.326 18.3912 20.3925 16.9766 18.3104 17.0184C16.9637 17.0608 15.6512 17.4432 14.5008 18.1281C13.3504 18.8131 12.4014 19.7773 11.7462 20.9268C8.90801 25.7243 11.025 32.775 13.7438 36.653C15.1041 38.5519 16.6939 40.6731 18.7741 40.5979C20.8097 40.5154 21.5699 39.3306 24.027 39.3306C26.4614 39.3306 27.1746 40.5979 29.297 40.55C31.4813 40.5154 32.8575 38.6427 34.1701 36.7258C35.1474 35.3727 35.8995 33.8773 36.3984 32.2949C35.1294 31.7709 34.0465 30.8938 33.2846 29.7729C32.5228 28.6521 32.1158 27.3371 32.1143 25.9919Z" fill="white"/>
<path d="M28.1043 14.4012C29.2953 13.0054 29.882 11.2113 29.74 9.3999C27.9204 9.58648 26.2397 10.4355 25.0327 11.7777C24.4425 12.4335 23.9905 13.1963 23.7025 14.0227C23.4145 14.8491 23.2961 15.7228 23.3542 16.5938C24.2643 16.603 25.1646 16.4104 25.9874 16.0306C26.8102 15.6508 27.534 15.0937 28.1043 14.4012Z" fill="white"/>
<path d="M50.1016 19.1406C47.7695 19.1406 46.293 17.4473 46.293 14.7695C46.293 12.1152 47.7871 10.4043 50.1016 10.4043C51.9414 10.4043 53.3418 11.5234 53.6113 13.2109H52.5449C52.2754 12.1035 51.3086 11.377 50.1016 11.377C48.4492 11.377 47.377 12.7129 47.377 14.7695C47.377 16.8438 48.4375 18.168 50.1074 18.168C51.3496 18.168 52.2402 17.5703 52.5449 16.5391H53.6113C53.2246 18.209 51.9707 19.1406 50.1016 19.1406ZM57.2266 19.1055C55.5391 19.1055 54.4023 17.8926 54.4023 15.9531C54.4023 14.0078 55.5391 12.8008 57.2266 12.8008C58.9082 12.8008 60.0449 14.0078 60.0449 15.9531C60.0449 17.8926 58.9082 19.1055 57.2266 19.1055ZM57.2266 18.209C58.3047 18.209 59.0078 17.3887 59.0078 15.9531C59.0078 14.5176 58.3047 13.6973 57.2266 13.6973C56.1484 13.6973 55.4395 14.5176 55.4395 15.9531C55.4395 17.3887 56.1484 18.209 57.2266 18.209ZM61.0762 19V12.9062H62.0371V13.8789H62.0605C62.3477 13.2344 62.9688 12.8008 63.7891 12.8008C64.6211 12.8008 65.2363 13.2227 65.5 13.9609H65.5234C65.8633 13.2344 66.5781 12.8008 67.4336 12.8008C68.6406 12.8008 69.4199 13.5859 69.4199 14.793V19H68.4004V15.0273C68.4004 14.1953 67.9375 13.7031 67.1348 13.7031C66.3262 13.7031 65.7578 14.3008 65.7578 15.127V19H64.7383V14.916C64.7383 14.1836 64.2461 13.7031 63.4902 13.7031C62.6816 13.7031 62.0957 14.3359 62.0957 15.1797V19H61.0762ZM70.7734 19V12.9062H71.793V19H70.7734ZM71.2832 11.8809C70.9375 11.8809 70.6504 11.5938 70.6504 11.248C70.6504 10.8965 70.9375 10.6152 71.2832 10.6152C71.6348 10.6152 71.9219 10.8965 71.9219 11.248C71.9219 11.5938 71.6348 11.8809 71.2832 11.8809ZM73.1699 19V12.9062H74.1309V13.8789H74.1543C74.4941 13.2227 75.1445 12.8008 76.0879 12.8008C77.4238 12.8008 78.1973 13.6621 78.1973 15.0449V19H77.1777V15.2266C77.1777 14.2422 76.7148 13.7031 75.7773 13.7031C74.8164 13.7031 74.1895 14.3828 74.1895 15.4141V19H73.1699ZM81.9766 18.1504C83.0371 18.1504 83.7461 17.2715 83.7461 15.9297C83.7461 14.5879 83.0371 13.6973 81.9766 13.6973C80.9277 13.6973 80.2422 14.5645 80.2422 15.9297C80.2422 17.2949 80.9277 18.1504 81.9766 18.1504ZM82.0117 21.2969C80.6699 21.2969 79.6094 20.541 79.4395 19.5039H80.4883C80.6875 20.0605 81.291 20.4297 82.0527 20.4297C83.1074 20.4297 83.7461 19.8203 83.7461 18.9121V17.9512H83.7227C83.3477 18.6133 82.627 19.0469 81.7715 19.0469C80.2188 19.0469 79.1992 17.8223 79.1992 15.9297C79.1992 14.0195 80.2188 12.8008 81.7949 12.8008C82.6562 12.8008 83.3711 13.2227 83.7754 13.9316H83.793V12.9062H84.7656V18.877C84.7656 20.3301 83.6934 21.2969 82.0117 21.2969ZM88.4512 14.5879C88.4512 13.5449 89.3828 12.8008 90.7246 12.8008C91.9844 12.8008 92.9102 13.5508 92.957 14.582H91.9844C91.9141 13.9961 91.4395 13.6328 90.6895 13.6328C89.9453 13.6328 89.4531 14.002 89.4531 14.5352C89.4531 14.957 89.7754 15.2383 90.4668 15.4141L91.4102 15.6426C92.6406 15.9531 93.0859 16.3984 93.0859 17.2949C93.0859 18.3555 92.084 19.1055 90.6602 19.1055C89.3242 19.1055 88.3926 18.3789 88.2871 17.3008H89.3066C89.418 17.9336 89.8984 18.2734 90.7246 18.2734C91.5508 18.2734 92.0605 17.9219 92.0605 17.3711C92.0605 16.9375 91.8086 16.7031 91.123 16.5215L90.0508 16.2461C88.9785 15.9707 88.4512 15.4199 88.4512 14.5879ZM96.6719 19.1055C94.9844 19.1055 93.8477 17.8926 93.8477 15.9531C93.8477 14.0078 94.9844 12.8008 96.6719 12.8008C98.3535 12.8008 99.4902 14.0078 99.4902 15.9531C99.4902 17.8926 98.3535 19.1055 96.6719 19.1055ZM96.6719 18.209C97.75 18.209 98.4531 17.3887 98.4531 15.9531C98.4531 14.5176 97.75 13.6973 96.6719 13.6973C95.5938 13.6973 94.8848 14.5176 94.8848 15.9531C94.8848 17.3887 95.5938 18.209 96.6719 18.209ZM103.047 19.1055C101.359 19.1055 100.223 17.8926 100.223 15.9531C100.223 14.0078 101.359 12.8008 103.047 12.8008C104.729 12.8008 105.865 14.0078 105.865 15.9531C105.865 17.8926 104.729 19.1055 103.047 19.1055ZM103.047 18.209C104.125 18.209 104.828 17.3887 104.828 15.9531C104.828 14.5176 104.125 13.6973 103.047 13.6973C101.969 13.6973 101.26 14.5176 101.26 15.9531C101.26 17.3887 101.969 18.209 103.047 18.209ZM106.896 19V12.9062H107.857V13.8789H107.881C108.221 13.2227 108.871 12.8008 109.814 12.8008C111.15 12.8008 111.924 13.6621 111.924 15.0449V19H110.904V15.2266C110.904 14.2422 110.441 13.7031 109.504 13.7031C108.543 13.7031 107.916 14.3828 107.916 15.4141V19H106.896ZM116.014 11.4355H117.033V12.9062H118.217V13.7441H117.033V17.3652C117.033 17.9219 117.268 18.1738 117.789 18.1738C117.906 18.1738 118.141 18.1562 118.211 18.1445V19C118.088 19.0293 117.807 19.0469 117.566 19.0469C116.447 19.0469 116.014 18.5898 116.014 17.418V13.7441H115.105V12.9062H116.014V11.4355ZM121.656 19.1055C119.969 19.1055 118.832 17.8926 118.832 15.9531C118.832 14.0078 119.969 12.8008 121.656 12.8008C123.338 12.8008 124.475 14.0078 124.475 15.9531C124.475 17.8926 123.338 19.1055 121.656 19.1055ZM121.656 18.209C122.734 18.209 123.438 17.3887 123.438 15.9531C123.438 14.5176 122.734 13.6973 121.656 13.6973C120.578 13.6973 119.869 14.5176 119.869 15.9531C119.869 17.3887 120.578 18.209 121.656 18.209Z" fill="white"/>
<path d="M129.892 38.0122C126.885 38.0122 124.973 36.0255 124.973 32.7001V31.5633C124.973 28.4291 126.843 26.3999 129.796 26.3999C132.792 26.3999 134.598 28.5035 134.598 31.6695V32.7426H127.299V33.0082C127.299 34.8993 128.319 36.153 129.924 36.153C131.124 36.153 131.942 35.558 132.229 34.5912H134.471C134.131 36.408 132.665 38.0122 129.892 38.0122ZM127.299 31.0958H132.293V31.0746C132.293 29.4809 131.305 28.2273 129.807 28.2273C128.287 28.2273 127.299 29.4809 127.299 31.0746V31.0958Z" fill="white"/>
<path d="M118.244 37.8209V26.591H120.603V28.0678H120.688C120.975 27.3666 121.814 26.4316 123.376 26.4316C123.684 26.4316 123.949 26.4529 124.172 26.4954V28.5777C123.971 28.5246 123.556 28.4928 123.163 28.4928C121.272 28.4928 120.635 29.6614 120.635 31.1701V37.8209H118.244Z" fill="white"/>
<path d="M111.27 26.3999C114.499 26.3999 116.252 28.6735 116.252 31.7333V32.6364C116.252 35.8024 114.51 38.0122 111.27 38.0122C108.029 38.0122 106.266 35.8024 106.266 32.6364V31.7333C106.266 28.6841 108.04 26.3999 111.27 26.3999ZM111.27 28.291C109.517 28.291 108.645 29.7253 108.645 31.7652V32.6257C108.645 34.6337 109.506 36.1105 111.27 36.1105C113.033 36.1105 113.883 34.6443 113.883 32.6257V31.7652C113.883 29.7147 113.023 28.291 111.27 28.291Z" fill="white"/>
<path d="M100.397 26.5908V23.8604H102.714V26.5908H104.902V28.4819H102.714V34.474C102.714 35.6958 103.17 36.0358 104.435 36.0358C104.637 36.0358 104.828 36.0358 104.966 36.0145V37.8207C104.775 37.8525 104.328 37.895 103.85 37.895C101.12 37.895 100.366 36.9176 100.366 34.6652V28.4819H98.8145V26.5908H100.397Z" fill="white"/>
<path d="M86.4941 33.7943H88.8527C88.959 35.0479 90.0639 36.121 92.1144 36.121C93.9949 36.121 95.1104 35.2392 95.1104 33.8686C95.1104 32.7637 94.3667 32.1688 92.8156 31.7969L90.4357 31.2019C88.5659 30.7663 86.8872 29.6508 86.8872 27.2922C86.8872 24.5193 89.3096 23 92.125 23C94.9404 23 97.2884 24.5193 97.3415 27.2285H95.0254C94.9192 25.996 93.9736 24.9761 92.0931 24.9761C90.4357 24.9761 89.3096 25.7623 89.3096 27.1116C89.3096 28.0572 89.9683 28.7371 91.3176 29.0452L93.6868 29.6295C95.8648 30.1608 97.5221 31.1913 97.5221 33.6561C97.5221 36.5035 95.2167 38.1077 91.9338 38.1077C87.8965 38.1077 86.5473 35.7491 86.4941 33.7943Z" fill="white"/>
<path d="M77.2377 37.9803C75.7821 37.9803 74.6772 37.2898 74.0823 36.2592H73.9973V41.5501H71.6387V26.5911H73.9335V28.2379H74.0185C74.6347 27.1648 75.7821 26.4424 77.2908 26.4424C79.8087 26.4424 81.6042 28.3441 81.6042 31.7014V32.7001C81.6042 36.0361 79.83 37.9803 77.2377 37.9803ZM76.6958 36.0361C78.1939 36.0361 79.2138 34.8356 79.2138 32.5726V31.7864C79.2138 29.6084 78.2576 28.3654 76.6533 28.3654C75.0066 28.3654 73.976 29.704 73.976 31.7758V32.5726C73.976 34.6974 75.0172 36.0361 76.6958 36.0361Z" fill="white"/>
<path d="M65.2494 37.9803C63.7939 37.9803 62.6889 37.2898 62.094 36.2592H62.009V41.5501H59.6504V26.5911H61.9452V28.2379H62.0302C62.6464 27.1648 63.7939 26.4424 65.3025 26.4424C67.8205 26.4424 69.616 28.3441 69.616 31.7014V32.7001C69.616 36.0361 67.8417 37.9803 65.2494 37.9803ZM64.7075 36.0361C66.2056 36.0361 67.2255 34.8356 67.2255 32.5726V31.7864C67.2255 29.6084 66.2693 28.3654 64.665 28.3654C63.0183 28.3654 61.9877 29.704 61.9877 31.7758V32.5726C61.9877 34.6974 63.0289 36.0361 64.7075 36.0361Z" fill="white"/>
<path d="M48.255 37.821H45.8008L50.7942 23.3188H53.4928L58.4755 37.821H55.9257L54.6402 33.805H49.5512L48.255 37.821ZM52.1541 25.8262H52.0585L50.093 31.9564H54.0983L52.1541 25.8262Z" fill="white"/>
</svg>
