<svg width="156" height="52" viewBox="0 0 156 52" fill="none" xmlns="http://www.w3.org/2000/svg">
<rect x="0.5" y="0.5" width="155" height="51" rx="5.5" fill="black"/>
<rect x="0.5" y="0.5" width="155" height="51" rx="5.5" stroke="#A6A6A6"/>
<path d="M23.1454 25.3003L10.5156 39.0078C10.5168 39.0102 10.5168 39.0139 10.518 39.0163C10.9059 40.5047 12.2345 41.6001 13.8122 41.6001C14.4432 41.6001 15.0352 41.4254 15.5429 41.1197L15.5832 41.0955L29.799 32.7072L23.1454 25.3003Z" fill="#EA4335"/>
<path d="M35.9233 22.9659L35.9115 22.9575L29.7739 19.3195L22.8594 25.6116L29.7988 32.7056L35.9031 29.104C36.9731 28.512 37.7003 27.3584 37.7003 26.0289C37.7003 24.7067 36.9838 23.5591 35.9233 22.9659Z" fill="#FBBC04"/>
<path d="M10.5147 12.9914C10.4388 13.2777 10.3984 13.5785 10.3984 13.8891V38.1114C10.3984 38.4219 10.4388 38.7227 10.5159 39.0078L23.5786 25.6509L10.5147 12.9914Z" fill="#4285F4"/>
<path d="M23.2391 26L29.7752 19.3173L15.5761 10.8987C15.0601 10.5821 14.4575 10.4001 13.8133 10.4001C12.2357 10.4001 10.9047 11.4979 10.5168 12.9876C10.5168 12.9888 10.5156 12.99 10.5156 12.9912L23.2391 26Z" fill="#34A853"/>
<path d="M52.5703 9.93945V11.5566C51.7812 10.8965 50.9648 10.5664 50.1211 10.5664C49.1914 10.5664 48.4082 10.9004 47.7715 11.5684C47.1309 12.2324 46.8105 13.0449 46.8105 14.0059C46.8105 14.9551 47.1309 15.7559 47.7715 16.4082C48.4121 17.0605 49.1973 17.3867 50.127 17.3867C50.6074 17.3867 51.0156 17.3086 51.3516 17.1523C51.5391 17.0742 51.7324 16.9688 51.9316 16.8359C52.1348 16.7031 52.3477 16.543 52.5703 16.3555V18.002C51.7891 18.4434 50.9688 18.6641 50.1094 18.6641C48.8164 18.6641 47.7129 18.2129 46.7988 17.3105C45.8887 16.4004 45.4336 15.3027 45.4336 14.0176C45.4336 12.8652 45.8145 11.8379 46.5762 10.9355C47.5137 9.83008 48.7266 9.27734 50.2148 9.27734C51.0273 9.27734 51.8125 9.49805 52.5703 9.93945ZM53.7773 15.6055C53.7773 14.7812 54.0723 14.0801 54.6621 13.502C55.252 12.9238 55.9707 12.6348 56.8184 12.6348C57.6699 12.6348 58.3926 12.9258 58.9863 13.5078C59.5723 14.0898 59.8652 14.8047 59.8652 15.6523C59.8652 16.5078 59.5703 17.2246 58.9805 17.8027C58.3867 18.377 57.6582 18.6641 56.7949 18.6641C55.9395 18.6641 55.2227 18.3711 54.6445 17.7852C54.0664 17.207 53.7773 16.4805 53.7773 15.6055ZM55.125 15.6289C55.125 16.1992 55.2773 16.6504 55.582 16.9824C55.8945 17.3184 56.3066 17.4863 56.8184 17.4863C57.334 17.4863 57.7461 17.3203 58.0547 16.9883C58.3633 16.6562 58.5176 16.2129 58.5176 15.6582C58.5176 15.1035 58.3633 14.6602 58.0547 14.3281C57.7422 13.9922 57.3301 13.8242 56.8184 13.8242C56.3145 13.8242 55.9062 13.9922 55.5938 14.3281C55.2812 14.6641 55.125 15.0977 55.125 15.6289ZM61.2656 12.793H62.584V13.3203C62.8379 13.0547 63.0547 12.875 63.2344 12.7812C63.4258 12.6836 63.666 12.6348 63.9551 12.6348C64.5996 12.6348 65.1094 12.916 65.4844 13.4785C65.8984 12.916 66.459 12.6348 67.166 12.6348C68.4512 12.6348 69.0938 13.4141 69.0938 14.9727V18.5H67.7695V15.3301C67.7695 14.7832 67.7031 14.3965 67.5703 14.1699C67.4336 13.9395 67.209 13.8242 66.8965 13.8242C66.5332 13.8242 66.2676 13.9609 66.0996 14.2344C65.9355 14.5078 65.8535 14.9473 65.8535 15.5527V18.5H64.5293V15.3477C64.5293 14.332 64.2363 13.8242 63.6504 13.8242C63.2793 13.8242 63.0078 13.9629 62.8359 14.2402C62.668 14.5176 62.584 14.9551 62.584 15.5527V18.5H61.2656V12.793ZM72.0762 12.793V18.5H70.7578V12.793H72.0762ZM70.5586 10.4199C70.5586 10.1895 70.6426 9.99023 70.8105 9.82227C70.9785 9.6543 71.1797 9.57031 71.4141 9.57031C71.6523 9.57031 71.8555 9.6543 72.0234 9.82227C72.1914 9.98633 72.2754 10.1875 72.2754 10.4258C72.2754 10.6641 72.1914 10.8672 72.0234 11.0352C71.8594 11.2031 71.6582 11.2871 71.4199 11.2871C71.1816 11.2871 70.9785 11.2031 70.8105 11.0352C70.6426 10.8672 70.5586 10.6621 70.5586 10.4199ZM73.7461 12.793H75.0703V13.3203C75.5312 12.8633 76.0508 12.6348 76.6289 12.6348C77.293 12.6348 77.8105 12.8438 78.1816 13.2617C78.502 13.6172 78.6621 14.1973 78.6621 15.002V18.5H77.3379V15.3125C77.3379 14.75 77.2598 14.3613 77.1035 14.1465C76.9512 13.9277 76.6738 13.8184 76.2715 13.8184C75.834 13.8184 75.5234 13.9629 75.3398 14.252C75.1602 14.5371 75.0703 15.0352 75.0703 15.7461V18.5H73.7461V12.793ZM85.8516 18.3652C85.8516 18.6348 85.8418 18.8711 85.8223 19.0742C85.8066 19.2812 85.7832 19.4629 85.752 19.6191C85.6582 20.0488 85.4746 20.418 85.2012 20.7266C84.6855 21.3203 83.9766 21.6172 83.0742 21.6172C82.3125 21.6172 81.6855 21.4121 81.1934 21.002C80.6855 20.5801 80.3926 19.9961 80.3145 19.25H81.6387C81.6895 19.5312 81.7734 19.748 81.8906 19.9004C82.1641 20.2559 82.5625 20.4336 83.0859 20.4336C84.0508 20.4336 84.5332 19.8418 84.5332 18.6582V17.8613C84.0098 18.3965 83.4062 18.6641 82.7227 18.6641C81.9453 18.6641 81.3086 18.3828 80.8125 17.8203C80.3125 17.25 80.0625 16.5371 80.0625 15.6816C80.0625 14.8496 80.2949 14.1426 80.7598 13.5605C81.2598 12.9434 81.9199 12.6348 82.7402 12.6348C83.459 12.6348 84.0566 12.9023 84.5332 13.4375V12.793H85.8516V18.3652ZM84.5859 15.6582C84.5859 15.1035 84.4375 14.6602 84.1406 14.3281C83.8398 13.9883 83.4551 13.8184 82.9863 13.8184C82.4863 13.8184 82.0918 14.0039 81.8027 14.375C81.541 14.707 81.4102 15.1367 81.4102 15.6641C81.4102 16.1836 81.541 16.6094 81.8027 16.9414C82.0879 17.3047 82.4824 17.4863 82.9863 17.4863C83.4902 17.4863 83.8887 17.3027 84.1816 16.9355C84.4512 16.6035 84.5859 16.1777 84.5859 15.6582ZM94.5352 13.7656L93.4453 14.3457C93.2734 13.9941 93.0605 13.8184 92.8066 13.8184C92.6855 13.8184 92.582 13.8594 92.4961 13.9414C92.4102 14.0195 92.3672 14.1211 92.3672 14.2461C92.3672 14.4648 92.6211 14.6816 93.1289 14.8965C93.8281 15.1973 94.2988 15.4746 94.541 15.7285C94.7832 15.9824 94.9043 16.3242 94.9043 16.7539C94.9043 17.3047 94.7012 17.7656 94.2949 18.1367C93.9004 18.4883 93.4238 18.6641 92.8652 18.6641C91.9082 18.6641 91.2305 18.1973 90.832 17.2637L91.957 16.7422C92.1133 17.0156 92.2324 17.1895 92.3145 17.2637C92.4746 17.4121 92.666 17.4863 92.8887 17.4863C93.334 17.4863 93.5566 17.2832 93.5566 16.877C93.5566 16.6426 93.3848 16.4238 93.041 16.2207C92.9082 16.1543 92.7754 16.0898 92.6426 16.0273C92.5098 15.9648 92.375 15.9004 92.2383 15.834C91.8555 15.6465 91.5859 15.459 91.4297 15.2715C91.2305 15.0332 91.1309 14.7266 91.1309 14.3516C91.1309 13.8555 91.3008 13.4453 91.6406 13.1211C91.9883 12.7969 92.4102 12.6348 92.9062 12.6348C93.6367 12.6348 94.1797 13.0117 94.5352 13.7656ZM95.8242 15.6055C95.8242 14.7812 96.1191 14.0801 96.709 13.502C97.2988 12.9238 98.0176 12.6348 98.8652 12.6348C99.7168 12.6348 100.439 12.9258 101.033 13.5078C101.619 14.0898 101.912 14.8047 101.912 15.6523C101.912 16.5078 101.617 17.2246 101.027 17.8027C100.434 18.377 99.7051 18.6641 98.8418 18.6641C97.9863 18.6641 97.2695 18.3711 96.6914 17.7852C96.1133 17.207 95.8242 16.4805 95.8242 15.6055ZM97.1719 15.6289C97.1719 16.1992 97.3242 16.6504 97.6289 16.9824C97.9414 17.3184 98.3535 17.4863 98.8652 17.4863C99.3809 17.4863 99.793 17.3203 100.102 16.9883C100.41 16.6562 100.564 16.2129 100.564 15.6582C100.564 15.1035 100.41 14.6602 100.102 14.3281C99.7891 13.9922 99.377 13.8242 98.8652 13.8242C98.3613 13.8242 97.9531 13.9922 97.6406 14.3281C97.3281 14.6641 97.1719 15.0977 97.1719 15.6289ZM103.043 15.6055C103.043 14.7812 103.338 14.0801 103.928 13.502C104.518 12.9238 105.236 12.6348 106.084 12.6348C106.936 12.6348 107.658 12.9258 108.252 13.5078C108.838 14.0898 109.131 14.8047 109.131 15.6523C109.131 16.5078 108.836 17.2246 108.246 17.8027C107.652 18.377 106.924 18.6641 106.061 18.6641C105.205 18.6641 104.488 18.3711 103.91 17.7852C103.332 17.207 103.043 16.4805 103.043 15.6055ZM104.391 15.6289C104.391 16.1992 104.543 16.6504 104.848 16.9824C105.16 17.3184 105.572 17.4863 106.084 17.4863C106.6 17.4863 107.012 17.3203 107.32 16.9883C107.629 16.6562 107.783 16.2129 107.783 15.6582C107.783 15.1035 107.629 14.6602 107.32 14.3281C107.008 13.9922 106.596 13.8242 106.084 13.8242C105.58 13.8242 105.172 13.9922 104.859 14.3281C104.547 14.6641 104.391 15.0977 104.391 15.6289ZM110.531 12.793H111.855V13.3203C112.316 12.8633 112.836 12.6348 113.414 12.6348C114.078 12.6348 114.596 12.8438 114.967 13.2617C115.287 13.6172 115.447 14.1973 115.447 15.002V18.5H114.123V15.3125C114.123 14.75 114.045 14.3613 113.889 14.1465C113.736 13.9277 113.459 13.8184 113.057 13.8184C112.619 13.8184 112.309 13.9629 112.125 14.252C111.945 14.5371 111.855 15.0352 111.855 15.7461V18.5H110.531V12.793ZM122.18 14.0234V18.5H120.861V14.0234H120.299V12.793H120.861V10.7012H122.18V12.793H123.205V14.0234H122.18ZM123.914 15.6055C123.914 14.7812 124.209 14.0801 124.799 13.502C125.389 12.9238 126.107 12.6348 126.955 12.6348C127.807 12.6348 128.529 12.9258 129.123 13.5078C129.709 14.0898 130.002 14.8047 130.002 15.6523C130.002 16.5078 129.707 17.2246 129.117 17.8027C128.523 18.377 127.795 18.6641 126.932 18.6641C126.076 18.6641 125.359 18.3711 124.781 17.7852C124.203 17.207 123.914 16.4805 123.914 15.6055ZM125.262 15.6289C125.262 16.1992 125.414 16.6504 125.719 16.9824C126.031 17.3184 126.443 17.4863 126.955 17.4863C127.471 17.4863 127.883 17.3203 128.191 16.9883C128.5 16.6562 128.654 16.2129 128.654 15.6582C128.654 15.1035 128.5 14.6602 128.191 14.3281C127.879 13.9922 127.467 13.8242 126.955 13.8242C126.451 13.8242 126.043 13.9922 125.73 14.3281C125.418 14.6641 125.262 15.0977 125.262 15.6289Z" fill="white"/>
<path d="M120.973 37.7129H123.131V23.0309H120.973V37.7129ZM140.402 28.3195L137.929 34.6851H137.855L135.289 28.3195H132.966L136.814 37.2161L134.621 42.1653H136.869L142.801 28.3195H140.402ZM128.169 36.0451C127.462 36.0451 126.477 35.6869 126.477 34.7978C126.477 33.6657 127.704 33.2311 128.764 33.2311C129.712 33.2311 130.159 33.439 130.735 33.722C130.567 35.0821 129.414 36.0451 128.169 36.0451ZM128.43 27.9989C126.868 27.9989 125.249 28.6977 124.581 30.2468L126.496 31.0583C126.905 30.2468 127.667 29.9814 128.467 29.9814C129.582 29.9814 130.716 30.6614 130.735 31.8711V32.0214C130.344 31.7947 129.508 31.4553 128.485 31.4553C126.422 31.4553 124.32 32.6075 124.32 34.7603C124.32 36.7251 126.012 37.9912 127.908 37.9912C129.359 37.9912 130.159 37.33 130.661 36.5548H130.735V37.6882H132.817V32.059C132.817 29.4528 130.902 27.9989 128.43 27.9989ZM115.099 30.107H112.031V25.0744H115.099C116.711 25.0744 117.627 26.4309 117.627 27.5901C117.627 28.7282 116.711 30.107 115.099 30.107ZM115.043 23.0309H109.875V37.7129H112.031V32.1506H115.043C117.434 32.1506 119.784 30.3912 119.784 27.5901C119.784 24.789 117.434 23.0309 115.043 23.0309ZM86.8591 36.0475C85.369 36.0475 84.1217 34.7802 84.1217 33.0397C84.1217 31.2803 85.369 29.9931 86.8591 29.9931C88.3307 29.9931 89.4843 31.2803 89.4843 33.0397C89.4843 34.7802 88.3307 36.0475 86.8591 36.0475ZM89.3364 29.1416H89.2612C88.7769 28.5556 87.8463 28.0259 86.673 28.0259C84.2142 28.0259 81.9612 30.2198 81.9612 33.0397C81.9612 35.8396 84.2142 38.0159 86.673 38.0159C87.8463 38.0159 88.7769 37.4862 89.2612 36.8802H89.3364V37.6001C89.3364 39.511 88.3307 40.5328 86.71 40.5328C85.3875 40.5328 84.5679 39.5674 84.2327 38.7534L82.3519 39.5486C82.8917 40.8734 84.3263 42.5 86.71 42.5C89.2427 42.5 91.3848 40.9861 91.3848 37.2971V28.3277H89.3364V29.1416ZM92.8748 37.7129H95.0354V23.0297H92.8748V37.7129ZM98.219 32.8694C98.1635 30.9397 99.6905 29.9555 100.789 29.9555C101.646 29.9555 102.372 30.3901 102.614 31.0149L98.219 32.8694ZM104.924 31.204C104.514 30.0882 103.266 28.0259 100.715 28.0259C98.182 28.0259 96.0781 30.0495 96.0781 33.0209C96.0781 35.8208 98.1635 38.0159 100.956 38.0159C103.211 38.0159 104.514 36.6159 105.054 35.802L103.378 34.6663C102.82 35.499 102.056 36.0475 100.956 36.0475C99.8582 36.0475 99.0756 35.5366 98.5727 34.5348L105.147 31.7712L104.924 31.204ZM52.5482 29.5585V31.6773H57.5386C57.3895 32.8694 56.9988 33.7396 56.4034 34.3445C55.6763 35.0832 54.54 35.8971 52.5482 35.8971C49.4744 35.8971 47.0723 33.3803 47.0723 30.2585C47.0723 27.1356 49.4744 24.6199 52.5482 24.6199C54.2059 24.6199 55.4162 25.2823 56.3098 26.1338L57.7814 24.6387C56.5329 23.4278 54.8764 22.5 52.5482 22.5C48.3393 22.5 44.8008 25.9823 44.8008 30.2585C44.8008 34.5348 48.3393 38.0159 52.5482 38.0159C54.8197 38.0159 56.5329 37.2584 57.8738 35.8396C59.2529 34.4396 59.6807 32.4724 59.6807 30.8822C59.6807 30.3901 59.6437 29.9367 59.5685 29.5585H52.5482ZM65.3554 36.0475C63.8653 36.0475 62.5799 34.799 62.5799 33.0209C62.5799 31.2228 63.8653 29.9931 65.3554 29.9931C66.8443 29.9931 68.1298 31.2228 68.1298 33.0209C68.1298 34.799 66.8443 36.0475 65.3554 36.0475ZM65.3554 28.0259C62.6354 28.0259 60.4193 30.1258 60.4193 33.0209C60.4193 35.8971 62.6354 38.0159 65.3554 38.0159C68.0743 38.0159 70.2903 35.8971 70.2903 33.0209C70.2903 30.1258 68.0743 28.0259 65.3554 28.0259ZM76.1211 36.0475C74.631 36.0475 73.3456 34.799 73.3456 33.0209C73.3456 31.2228 74.631 29.9931 76.1211 29.9931C77.6112 29.9931 78.8955 31.2228 78.8955 33.0209C78.8955 34.799 77.6112 36.0475 76.1211 36.0475ZM76.1211 28.0259C73.4022 28.0259 71.1862 30.1258 71.1862 33.0209C71.1862 35.8971 73.4022 38.0159 76.1211 38.0159C78.84 38.0159 81.056 35.8971 81.056 33.0209C81.056 30.1258 78.84 28.0259 76.1211 28.0259Z" fill="white"/>
</svg>
